# xmcd
# 
# Track frame offsets:
#	187
#	18787
#	38137
#	49075
#	72342
#	87445
#	104770
#	113805
#	139430
#	154080
#
# Disc length: 2301 seconds
#
# Revision: 1
# Processed by: cddbd v1.4PL0 Copyright (c) Steve Scherf et al.
# Submitted via: Audio-CD-Archiv 2.10.438
#
DISCID=8808fb0a
DTITLE=Hans Theessink - Baby wants to boogie
DYEAR=1900
DGENRE=blues
TTITLE0=Baby wants to boogie
TTITLE1=My baby changed the lock on her door
TTITLE2=Slidin' delta
TTITLE3=Stones in my passway
TTITLE4=Nobody's fault but mine
TTITLE5=Darkest hour
TTITLE6=Southsea shuffle
TTITLE7=Hunted man
TTITLE8=Went to the doctor
TTITLE9=When things go wrong
EXTD=
EXTT0=
EXTT1=
EXTT2=
EXTT3=
EXTT4=
EXTT5=
EXTT6=
EXTT7=
EXTT8=
EXTT9=
PLAYORDER=
